# xmcd
#
# Track frame offsets:
#	150
#	18105
#	46399
#	68987
#	88051
#	104516
#	133641
#	163077
#	175292
#	190782
#	203234
#
# Disc length: 3004 seconds
#
# Revision: 0
# Processed by: cddbd v1.5.2PL0 Copyright (c) Steve Scherf et al.
# Submitted via: EZCDAudioConverter 5.0.1.1
#
DISCID=960bba0b
DTITLE=Various Artist - Kammgarn Intern. Blues Festival 2016
DYEAR=2016
DGENRE=Blues - Blues Rock
TTITLE0=Michael Hill - Black Gold
TTITLE1=Layla Zoe - Backstage Queen
TTITLE2=Danny Bryant - Blood Money (feat. Walter Trout)
TTITLE3=Jim Kahr - Where We Goin?
TTITLE4=The Brew - Black Hole Soul
TTITLE5=Henrik Freischlader Trio - Master Plan
TTITLE6=Walter Trout - Cold, Cold Ground
TTITLE7=Simo - Please
TTITLE8=The Brew - Johnny Moore
TTITLE9=The Excitements - The Mojo Train
TTITLE10=Michael Hill - Let The Ladies Have The Floor
EXTD=
EXTT0=
EXTT1=
EXTT2=
EXTT3=
EXTT4=
EXTT5=
EXTT6=
EXTT7=
EXTT8=
EXTT9=
EXTT10=
PLAYORDER=
